<?xml version="1.0" encoding="utf-8"?>
<!-- Generator: Adobe Illustrator 16.0.0, SVG Export Plug-In . SVG Version: 6.00 Build 0)  -->
<!DOCTYPE svg PUBLIC "-//W3C//DTD SVG 1.1//EN" "http://www.w3.org/Graphics/SVG/1.1/DTD/svg11.dtd">
<svg version="1.1" id="Layer_1" xmlns="http://www.w3.org/2000/svg" xmlns:xlink="http://www.w3.org/1999/xlink" x="0px" y="0px"
	 width="53.336px" height="252.795px" viewBox="0 0 53.336 252.795" enable-background="new 0 0 53.336 252.795"
	 xml:space="preserve">
<path fill="#E6594A" d="M53.129,0L0.041,2.628l0.573,246.167c0,0,5.946-3.998,8.325-3.107c2.378,0.886,3.765,3.107,4.36,3.107
	c0.597,0,1.983-5.331,6.344-1.997c4.36,3.33,8.125,3.999,8.92,2.666c0.792-1.335,1.782-8,4.955-3.557
	c3.171,4.441,6.144,6.888,6.144,6.888s-2.181-26.881-5.549-40.43c-3.371-13.548-20.416-55.531-21.01-57.532
	c-0.595-2,0.396-4.442,0.396-4.442s20.614-21.103,28.937-50.202c8.325-29.099,10.901-87.519,10.901-87.519L53.129,0z"/>
<path fill="#E6332A" d="M14.94,30.129l5.768-8.195c0,0-0.428,27.528-2.67,44.244c-2.242,16.714-5.659,39.655-7.582,44.244
	c-1.923,4.589,1.069-0.549,2.705-16.717C14.8,77.538,14.94,30.129,14.94,30.129z"/>
<g>
	<path fill="#E6332A" d="M5.762,245.21c0,0,1.979,0,2.419-9.367c0.44-9.37,0.88,0.738,2.2,5.916
		c1.319,5.176,2.199,6.654,2.199,6.654s-1.54-3.203-3.519-3.203S5.762,245.21,5.762,245.21z"/>
	<path fill="#E6332A" d="M30.031,243.667c0,0,1.981,0,2.419-9.364c0.44-9.37,0.882,0.738,2.202,5.914
		c1.319,5.179,4.271,10.974,4.271,10.974s-3.684-10.027-6.105-9.125C30.939,242.767,30.031,243.667,30.031,243.667z"/>
	<path fill="#E6332A" d="M14.339,246.442c0,0,2.089-2.711,3.796-1.603c1.705,1.11,3.629,3.203,4.179,3.33
		c0.548,0.122-1.762-1.787-3.519-4.746c-1.762-2.957-3.191-4.131-3.741-2.527S14.339,246.442,14.339,246.442z"/>
</g>
<path fill="#E6332A" d="M6.515,153.948c-0.312-2.467-0.157-3.623,0.837-1.675c2.867-5.611,10.88-21.036,13.944-37.545
	c4.407-23.75,4.79-93.405,4.79-93.405L41.608,9.286c0,0-1.151,40.442-7.187,64.998c-5.94,24.17-21.349,70.733-26.766,78.622
	c0.083,0.185,0.169,0.38,0.26,0.596c2.642,6.246,12.906,41.089,13.199,42.077c0,0,0.586,2.301-2.053,0
	c-2.639-2.302-9.091-26.298-10.85-33.2c-0.723-2.834-1.347-5.889-1.648-8.074C6.232,154.672,6.244,154.529,6.515,153.948z"/>
<path fill="#E6332A" d="M11.7,124.659l-8.58,22.187l1.54,3.698C4.66,150.543,11.92,126.386,11.7,124.659z"/>
<path fill="#73A5A3" stroke="#73A5A3" stroke-width="1.0272" stroke-miterlimit="10" d="M0.188,145.12l13.492,5.293
	c0,0-0.619,1.459-0.309,2.373c0.309,0.912-13.025-2.009-13.025-2.009"/>
<path fill="#E6332A" d="M3.306,153.479c12.26,42.698,12.364,39.909,14.188,47.77c1.907,8.217,4.25,20.625,4.25,20.625
	s-4.398-9.533-7.332-23.176C11.48,185.058,3.306,153.479,3.306,153.479z"/>
</svg>
