<?xml version="1.0" encoding="utf-8"?>
<!-- Generator: Adobe Illustrator 16.0.0, SVG Export Plug-In . SVG Version: 6.00 Build 0)  -->
<!DOCTYPE svg PUBLIC "-//W3C//DTD SVG 1.1//EN" "http://www.w3.org/Graphics/SVG/1.1/DTD/svg11.dtd">
<svg version="1.1" id="Layer_1" xmlns="http://www.w3.org/2000/svg" xmlns:xlink="http://www.w3.org/1999/xlink" x="0px" y="0px"
	 width="151.887px" height="141.188px" viewBox="84.653 74.788 151.887 141.188"
	 enable-background="new 84.653 74.788 151.887 141.188" xml:space="preserve">
<pattern  x="94.5" y="796.5" width="26" height="26" patternUnits="userSpaceOnUse" id="Nuovo_campione_pattern_5" viewBox="0 -26 26 26" overflow="visible">
	<g>
		<polygon fill="none" points="0,0 26,0 26,-26 0,-26 		"/>
		<g>
			<polygon fill="none" points="0,-26 26,-26 26,0 0,0 			"/>
			<polygon fill="#FAC100" points="26,-26 0,-26 0,0 26,0 			"/>
		</g>
	</g>
</pattern>
<pattern  x="94.5" y="796.5" width="26" height="26" patternUnits="userSpaceOnUse" id="Nuovo_campione_pattern_6" viewBox="0 -26 26 26" overflow="visible">
	<g>
		<polygon fill="none" points="0,0 26,0 26,-26 0,-26 		"/>
		<g>
			<polygon fill="none" points="0,0 26,0 26,-26 0,-26 			"/>
			<polygon fill="#32AE95" points="26,-26 0,-26 0,0 26,0 			"/>
		</g>
	</g>
</pattern>
<pattern  x="94.5" y="796.5" width="26" height="26" patternUnits="userSpaceOnUse" id="Nuovo_campione_pattern_7" viewBox="0 -26 26 26" overflow="visible">
	<g>
		<polygon fill="none" points="0,0 26,0 26,-26 0,-26 		"/>
		<g>
			<polygon fill="none" points="0,-26 26,-26 26,0 0,0 			"/>
			<polygon fill="#173140" points="26,-26 0,-26 0,0 26,0 			"/>
		</g>
	</g>
</pattern>
<pattern  x="94.5" y="796.5" width="26" height="26" patternUnits="userSpaceOnUse" id="Nuovo_campione_pattern_8" viewBox="0 -26 26 26" overflow="visible">
	<g>
		<polygon fill="none" points="0,0 26,0 26,-26 0,-26 		"/>
		<g>
			<polygon fill="none" points="0,-26 26,-26 26,0 0,0 			"/>
			<polygon fill="#3D1E00" points="26,-26 0,-26 0,0 26,0 			"/>
		</g>
	</g>
</pattern>
<g id="background" display="none">
</g>
<g id="objects">
	<g>
		<g>
			<pattern  id="SVGID_1_" xlink:href="#Nuovo_campione_pattern_7" patternTransform="matrix(1 0 0 -1 -16.5 -18427.5488)">
			</pattern>
			
				<line fill="none" stroke="url(#SVGID_1_)" stroke-width="6.7355" stroke-linecap="round" stroke-linejoin="round" stroke-miterlimit="10" x1="182.984" y1="141.104" x2="182.984" y2="105.526"/>
			<pattern  id="SVGID_2_" xlink:href="#Nuovo_campione_pattern_8" patternTransform="matrix(1 0 0 -1 -16.5 -18427.5488)">
			</pattern>
			
				<line fill="none" stroke="url(#SVGID_2_)" stroke-width="3" stroke-miterlimit="10" x1="203.337" y1="109.566" x2="196.309" y2="158.193"/>
			<pattern  id="SVGID_3_" xlink:href="#Nuovo_campione_pattern_8" patternTransform="matrix(1 0 0 -1 -16.5 -18427.5488)">
			</pattern>
			
				<line fill="none" stroke="url(#SVGID_3_)" stroke-width="3" stroke-miterlimit="10" x1="98.998" y1="127.559" x2="126.608" y2="175.364"/>
			<pattern  id="SVGID_4_" xlink:href="#Nuovo_campione_pattern_7" patternTransform="matrix(1 0 0 -1 -16.5 -18427.5488)">
			</pattern>
			<path fill="none" stroke="url(#SVGID_4_)" stroke-width="4" stroke-miterlimit="10" d="M136.984,185.026l-10.353-0.766
				c0,0-6.644,0.935-6.646-6.4c-0.003-7.167,0-25,0-25"/>
			<pattern  id="SVGID_5_" xlink:href="#Nuovo_campione_pattern_7" patternTransform="matrix(1 0 0 -1 -16.5 -18427.5488)">
			</pattern>
			<pattern  id="SVGID_6_" xlink:href="#Nuovo_campione_pattern_7" patternTransform="matrix(1 0 0 -1 -16.5 -18427.5488)">
			</pattern>
			
				<path fill="url(#SVGID_5_)" stroke="url(#SVGID_6_)" stroke-width="6.7355" stroke-linecap="round" stroke-linejoin="round" stroke-miterlimit="10" d="
				M180.984,174.7v-22.85c0,0,0.455-12.98,5.46-13.501c5.005-0.52,5.611,0,5.611,0s3.791,1.846,3.64,18.06
				c-0.15,16.214,0,56.199,0,56.199h-11.83L180.984,174.7z"/>
			<g>
				<pattern  id="SVGID_7_" xlink:href="#Nuovo_campione_pattern_6" patternTransform="matrix(1 0 0 -1 -16.5 -18427.5488)">
				</pattern>
				<path fill="url(#SVGID_7_)" d="M198.309,177.193c0,13.255-10.746,24-24,24h-24.736c-13.254,0-24-10.745-24-24v-7.5
					c0-13.255,10.746-24,24-24h24.736c13.254,0,24,10.745,24,24V177.193L198.309,177.193z"/>
				<pattern  id="SVGID_8_" xlink:href="#Nuovo_campione_pattern_7" patternTransform="matrix(1 0 0 -1 -16.5 -18427.5488)">
				</pattern>
				<path fill="url(#SVGID_8_)" d="M174.309,150.693c10.477,0,19,8.523,19,19v7.5c0,10.477-8.523,19-19,19h-24.736
					c-10.477,0-19-8.523-19-19v-7.5c0-10.477,8.523-19,19-19H174.309 M174.309,145.693h-24.736c-13.254,0-24,10.745-24,24v7.5
					c0,13.255,10.746,24,24,24h24.736c13.254,0,24-10.745,24-24v-7.5C198.309,156.438,187.563,145.693,174.309,145.693
					L174.309,145.693z"/>
			</g>
			<pattern  id="SVGID_9_" xlink:href="#Nuovo_campione_pattern_7" patternTransform="matrix(1 0 0 -1 -16.5 -18427.5488)">
			</pattern>
			<path fill="url(#SVGID_9_)" d="M234.525,145.314h-5.268c-0.677,0-1.305,0.345-1.678,0.918
				c-0.145,0.218-14.311,21.749-28.243,22.071c-1.096,0.024-1.97,0.939-1.97,2.058v6.163c0,1.12,0.874,2.034,1.97,2.059
				c13.912,0.321,28.099,21.853,28.243,22.071c0.373,0.574,1.001,0.919,1.678,0.919h5.268c1.112,0,2.015-0.922,2.015-2.059v-52.142
				C236.54,146.235,235.638,145.314,234.525,145.314z"/>
			<pattern  id="SVGID_10_" xlink:href="#Nuovo_campione_pattern_5" patternTransform="matrix(1 0 0 -1 -16.5 -18427.5488)">
			</pattern>
			<circle fill="url(#SVGID_10_)" cx="147.984" cy="181.359" r="3.75"/>
			<pattern  id="SVGID_11_" xlink:href="#Nuovo_campione_pattern_5" patternTransform="matrix(1 0 0 -1 -16.5 -18427.5488)">
			</pattern>
			<circle fill="url(#SVGID_11_)" cx="176.734" cy="181.359" r="3.75"/>
			<pattern  id="SVGID_12_" xlink:href="#Nuovo_campione_pattern_8" patternTransform="matrix(1 0 0 -1 -16.5 -18427.5488)">
			</pattern>
			
				<line fill="none" stroke="url(#SVGID_12_)" stroke-width="3" stroke-miterlimit="10" x1="112.568" y1="103.764" x2="183.401" y2="89.016"/>
			<g>
				<pattern  id="SVGID_13_" xlink:href="#Nuovo_campione_pattern_8" patternTransform="matrix(1 0 0 -1 -16.5 -18427.5488)">
				</pattern>
				<circle fill="url(#SVGID_13_)" cx="116.603" cy="121.549" r="19.551"/>
				<pattern  id="SVGID_14_" xlink:href="#Nuovo_campione_pattern_6" patternTransform="matrix(1 0 0 -1 -16.5 -18427.5488)">
				</pattern>
				
					<circle fill="none" stroke="url(#SVGID_14_)" stroke-width="6.8139" stroke-miterlimit="10" cx="117.019" cy="121.459" r="28.959"/>
				<g>
					<g>
						<pattern  id="SVGID_15_" xlink:href="#Nuovo_campione_pattern_6" patternTransform="matrix(1 0 0 -1 -16.5 -18427.5488)">
						</pattern>
						
							<line fill="none" stroke="url(#SVGID_15_)" stroke-width="6.8139" stroke-miterlimit="10" x1="139.027" y1="136.74" x2="92.513" y2="106.717"/>
					</g>
					<g>
						<pattern  id="SVGID_16_" xlink:href="#Nuovo_campione_pattern_6" patternTransform="matrix(1 0 0 -1 -16.5 -18427.5488)">
						</pattern>
						
							<line fill="none" stroke="url(#SVGID_16_)" stroke-width="6.8139" stroke-miterlimit="10" x1="121.6" y1="148.789" x2="109.939" y2="94.668"/>
					</g>
					<g>
						<pattern  id="SVGID_17_" xlink:href="#Nuovo_campione_pattern_6" patternTransform="matrix(1 0 0 -1 -16.5 -18427.5488)">
						</pattern>
						
							<line fill="none" stroke="url(#SVGID_17_)" stroke-width="6.8139" stroke-miterlimit="10" x1="100.758" y1="144.985" x2="130.782" y2="98.471"/>
					</g>
					<g>
						<pattern  id="SVGID_18_" xlink:href="#Nuovo_campione_pattern_6" patternTransform="matrix(1 0 0 -1 -16.5 -18427.5488)">
						</pattern>
						
							<line fill="none" stroke="url(#SVGID_18_)" stroke-width="6.8139" stroke-miterlimit="10" x1="88.71" y1="127.559" x2="142.83" y2="115.898"/>
					</g>
				</g>
			</g>
			<g>
				<pattern  id="SVGID_19_" xlink:href="#Nuovo_campione_pattern_8" patternTransform="matrix(1 0 0 -1 -16.5 -18427.5488)">
				</pattern>
				<circle fill="url(#SVGID_19_)" cx="185.925" cy="107.243" r="19.55"/>
				<pattern  id="SVGID_20_" xlink:href="#Nuovo_campione_pattern_6" patternTransform="matrix(1 0 0 -1 -16.5 -18427.5488)">
				</pattern>
				
					<circle fill="none" stroke="url(#SVGID_20_)" stroke-width="6.8139" stroke-miterlimit="10" cx="186.341" cy="107.154" r="28.959"/>
				<g>
					<g>
						<pattern  id="SVGID_21_" xlink:href="#Nuovo_campione_pattern_6" patternTransform="matrix(1 0 0 -1 -16.5 -18427.5488)">
						</pattern>
						
							<line fill="none" stroke="url(#SVGID_21_)" stroke-width="6.8139" stroke-miterlimit="10" x1="208.349" y1="122.435" x2="161.835" y2="92.412"/>
					</g>
					<g>
						<pattern  id="SVGID_22_" xlink:href="#Nuovo_campione_pattern_6" patternTransform="matrix(1 0 0 -1 -16.5 -18427.5488)">
						</pattern>
						
							<line fill="none" stroke="url(#SVGID_22_)" stroke-width="6.8139" stroke-miterlimit="10" x1="190.923" y1="134.483" x2="179.262" y2="80.363"/>
					</g>
					<g>
						<pattern  id="SVGID_23_" xlink:href="#Nuovo_campione_pattern_6" patternTransform="matrix(1 0 0 -1 -16.5 -18427.5488)">
						</pattern>
						
							<line fill="none" stroke="url(#SVGID_23_)" stroke-width="6.8139" stroke-miterlimit="10" x1="170.081" y1="130.68" x2="200.104" y2="84.166"/>
					</g>
					<g>
						<pattern  id="SVGID_24_" xlink:href="#Nuovo_campione_pattern_6" patternTransform="matrix(1 0 0 -1 -16.5 -18427.5488)">
						</pattern>
						
							<line fill="none" stroke="url(#SVGID_24_)" stroke-width="6.8139" stroke-miterlimit="10" x1="158.032" y1="113.253" x2="212.152" y2="101.593"/>
					</g>
				</g>
			</g>
			<pattern  id="SVGID_25_" xlink:href="#Nuovo_campione_pattern_8" patternTransform="matrix(1 0 0 -1 -16.5 -18427.5488)">
			</pattern>
			<path fill="none" stroke="url(#SVGID_25_)" stroke-width="3" stroke-miterlimit="10" d="M112.485,102.437"/>
		</g>
	</g>
</g>
</svg>
