<?xml version="1.0" encoding="utf-8"?>
<!-- Generator: Adobe Illustrator 16.0.0, SVG Export Plug-In . SVG Version: 6.00 Build 0)  -->
<svg version="1.2" baseProfile="tiny" id="Layer_1" xmlns="http://www.w3.org/2000/svg" xmlns:xlink="http://www.w3.org/1999/xlink"
	 x="0px" y="0px" width="460.185px" height="461.601px" viewBox="0 0 460.185 461.601" xml:space="preserve">
<rect x="-0.5" y="0.5" display="none" stroke="#FFFFFF" stroke-miterlimit="10" width="460" height="462"/>
<path fill="#FFFFFF" d="M326.874,324.374c-5.272,5.272-13.819,5.272-19.092,0L133.127,149.719c-5.272-5.271-5.272-13.82,0-19.092
	l0,0c5.272-5.272,13.82-5.271,19.092,0l174.655,174.655C332.146,310.555,332.146,319.102,326.874,324.374L326.874,324.374z"/>
<path fill="#FFFFFF" d="M326.874,130.626c5.272,5.272,5.272,13.819,0,19.092L152.219,324.373c-5.271,5.271-13.82,5.271-19.092,0l0,0
	c-5.272-5.272-5.271-13.82,0-19.092l174.655-174.655C313.055,125.354,321.602,125.354,326.874,130.626L326.874,130.626z"/>
</svg>
