<?xml version="1.0" encoding="utf-8"?>
<!-- Generator: Adobe Illustrator 16.0.0, SVG Export Plug-In . SVG Version: 6.00 Build 0)  -->
<svg version="1.2" baseProfile="tiny" id="Layer_1" xmlns="http://www.w3.org/2000/svg" xmlns:xlink="http://www.w3.org/1999/xlink"
	 x="0px" y="0px" width="460.185px" height="461.601px" viewBox="0 0 460.185 461.601" xml:space="preserve">
<rect display="none" fill="#FFFFFF" width="460" height="462"/>
<g>
	<path fill="#FFFFFF" d="M367,161.5c0,7.456-6.044,13.5-13.5,13.5h-247c-7.456,0-13.5-6.044-13.5-13.5l0,0
		c0-7.456,6.044-13.5,13.5-13.5h247C360.956,148,367,154.044,367,161.5L367,161.5z"/>
	<path fill="#FFFFFF" d="M367,227.5c0,7.456-6.044,13.5-13.5,13.5h-247c-7.456,0-13.5-6.044-13.5-13.5l0,0
		c0-7.456,6.044-13.5,13.5-13.5h247C360.956,214,367,220.044,367,227.5L367,227.5z"/>
	<path fill="#FFFFFF" d="M367,291.5c0,7.456-6.044,13.5-13.5,13.5h-247c-7.456,0-13.5-6.044-13.5-13.5l0,0
		c0-7.456,6.044-13.5,13.5-13.5h247C360.956,278,367,284.044,367,291.5L367,291.5z"/>
</g>
</svg>
