<?xml version="1.0" encoding="utf-8"?>
<!-- Generator: Adobe Illustrator 16.0.0, SVG Export Plug-In . SVG Version: 6.00 Build 0)  -->
<!DOCTYPE svg PUBLIC "-//W3C//DTD SVG 1.1//EN" "http://www.w3.org/Graphics/SVG/1.1/DTD/svg11.dtd">
<svg version="1.1" id="Layer_1" xmlns="http://www.w3.org/2000/svg" xmlns:xlink="http://www.w3.org/1999/xlink" x="0px" y="0px"
	 width="443.038px" height="324.677px" viewBox="0 0 443.038 324.677" enable-background="new 0 0 443.038 324.677"
	 xml:space="preserve">
<g>
	<g>
		<polygon fill="#575756" points="420.366,74.05 232.791,72.9 243.266,110.752 443.038,110.752 		"/>
		<g>
			<path fill="#F6F6F6" d="M254.837,103.81c0-2.131-1.729-3.856-3.856-3.856c-2.134,0-3.858,1.726-3.858,3.856
				c0,2.136,1.725,3.856,3.858,3.856C253.108,107.666,254.837,105.945,254.837,103.81z"/>
			<path fill="#F6F6F6" d="M271.032,103.81c0-2.131-1.726-3.856-3.854-3.856c-2.134,0-3.859,1.726-3.859,3.856
				c0,2.136,1.726,3.856,3.859,3.856C269.307,107.666,271.032,105.945,271.032,103.81z"/>
			<path fill="#F6F6F6" d="M287.232,103.81c0-2.131-1.728-3.856-3.858-3.856c-2.129,0-3.858,1.726-3.858,3.856
				c0,2.136,1.729,3.856,3.858,3.856C285.505,107.666,287.232,105.945,287.232,103.81z"/>
			<path fill="#F6F6F6" d="M303.431,103.81c0-2.131-1.73-3.856-3.859-3.856c-2.128,0-3.858,1.726-3.858,3.856
				c0,2.136,1.73,3.856,3.858,3.856C301.7,107.666,303.431,105.945,303.431,103.81z"/>
			<path fill="#F6F6F6" d="M319.626,103.81c0-2.131-1.726-3.856-3.856-3.856s-3.856,1.726-3.856,3.856
				c0,2.136,1.726,3.856,3.856,3.856S319.626,105.945,319.626,103.81z"/>
			<path fill="#F6F6F6" d="M335.824,103.81c0-2.131-1.73-3.856-3.858-3.856c-2.129,0-3.854,1.726-3.854,3.856
				c0,2.136,1.726,3.856,3.854,3.856C334.094,107.666,335.824,105.945,335.824,103.81z"/>
			<path fill="#F6F6F6" d="M352.022,103.81c0-2.131-1.729-3.856-3.856-3.856c-2.131,0-3.856,1.726-3.856,3.856
				c0,2.136,1.726,3.856,3.856,3.856C350.294,107.666,352.022,105.945,352.022,103.81z"/>
			<path fill="#F6F6F6" d="M368.22,103.81c0-2.131-1.73-3.856-3.856-3.856c-2.131,0-3.858,1.726-3.858,3.856
				c0,2.136,1.728,3.856,3.858,3.856C366.489,107.666,368.22,105.945,368.22,103.81z"/>
			<path fill="#F6F6F6" d="M384.418,103.81c0-2.131-1.728-3.856-3.856-3.856c-2.131,0-3.856,1.726-3.856,3.856
				c0,2.136,1.726,3.856,3.856,3.856C382.69,107.666,384.418,105.945,384.418,103.81z"/>
			<path fill="#F6F6F6" d="M400.613,103.81c0-2.131-1.726-3.856-3.854-3.856c-2.134,0-3.861,1.726-3.861,3.856
				c0,2.136,1.728,3.856,3.861,3.856C398.888,107.666,400.613,105.945,400.613,103.81z"/>
			<path fill="#F6F6F6" d="M416.812,103.81c0-2.131-1.726-3.856-3.856-3.856s-3.856,1.726-3.856,3.856
				c0,2.136,1.726,3.856,3.856,3.856S416.812,105.945,416.812,103.81z"/>
			<path fill="#F6F6F6" d="M433.012,103.81c0-2.131-1.726-3.856-3.858-3.856c-2.129,0-3.856,1.726-3.856,3.856
				c0,2.136,1.728,3.856,3.856,3.856C431.286,107.666,433.012,105.945,433.012,103.81z"/>
		</g>
		<g>
			<path fill="#F6F6F6" d="M254.837,82.215c0-2.133-1.729-3.856-3.856-3.856c-2.134,0-3.858,1.724-3.858,3.856
				c0,2.129,1.725,3.854,3.858,3.854C253.108,86.068,254.837,84.344,254.837,82.215z"/>
			<path fill="#F6F6F6" d="M271.032,82.215c0-2.133-1.726-3.856-3.854-3.856c-2.134,0-3.859,1.724-3.859,3.856
				c0,2.129,1.726,3.854,3.859,3.854C269.307,86.068,271.032,84.344,271.032,82.215z"/>
			<path fill="#F6F6F6" d="M287.232,82.215c0-2.133-1.728-3.856-3.858-3.856c-2.129,0-3.858,1.724-3.858,3.856
				c0,2.129,1.729,3.854,3.858,3.854C285.505,86.068,287.232,84.344,287.232,82.215z"/>
			<path fill="#F6F6F6" d="M303.431,82.215c0-2.133-1.73-3.856-3.859-3.856c-2.128,0-3.858,1.724-3.858,3.856
				c0,2.129,1.73,3.854,3.858,3.854C301.7,86.068,303.431,84.344,303.431,82.215z"/>
			<path fill="#F6F6F6" d="M319.626,82.215c0-2.133-1.726-3.856-3.856-3.856s-3.856,1.724-3.856,3.856
				c0,2.129,1.726,3.854,3.856,3.854S319.626,84.344,319.626,82.215z"/>
			<path fill="#F6F6F6" d="M335.824,82.215c0-2.133-1.73-3.856-3.858-3.856c-2.129,0-3.854,1.724-3.854,3.856
				c0,2.129,1.726,3.854,3.854,3.854C334.094,86.068,335.824,84.344,335.824,82.215z"/>
			<path fill="#F6F6F6" d="M352.022,82.215c0-2.133-1.729-3.856-3.856-3.856c-2.131,0-3.856,1.724-3.856,3.856
				c0,2.129,1.726,3.854,3.856,3.854C350.294,86.068,352.022,84.344,352.022,82.215z"/>
			<path fill="#F6F6F6" d="M368.22,82.215c0-2.133-1.73-3.856-3.856-3.856c-2.131,0-3.858,1.724-3.858,3.856
				c0,2.129,1.728,3.854,3.858,3.854C366.489,86.068,368.22,84.344,368.22,82.215z"/>
			<path fill="#F6F6F6" d="M384.418,82.215c0-2.133-1.728-3.856-3.856-3.856c-2.131,0-3.856,1.724-3.856,3.856
				c0,2.129,1.726,3.854,3.856,3.854C382.69,86.068,384.418,84.344,384.418,82.215z"/>
			<path fill="#F6F6F6" d="M400.613,82.215c0-2.133-1.726-3.856-3.854-3.856c-2.134,0-3.861,1.724-3.861,3.856
				c0,2.129,1.728,3.854,3.861,3.854C398.888,86.068,400.613,84.344,400.613,82.215z"/>
			<path fill="#F6F6F6" d="M416.812,82.215c0-2.133-1.726-3.856-3.856-3.856s-3.856,1.724-3.856,3.856
				c0,2.129,1.726,3.854,3.856,3.854S416.812,84.344,416.812,82.215z"/>
		</g>
	</g>
	<g>
		<path fill="#575756" d="M135.032,279.903c64.493,14.791,128.769-25.493,143.554-89.986
			c14.79-64.483-25.491-128.754-89.984-143.544c-64.491-14.8-128.761,25.484-143.559,89.984
			C30.258,200.843,70.54,265.106,135.032,279.903z M169.796,272.907c-17.863,1.092-33.234-12.506-34.327-30.372
			c-1.093-17.864,12.505-33.244,30.374-34.33c17.861-1.091,33.229,12.508,34.325,30.372
			C201.261,256.443,187.661,271.817,169.796,272.907z M248.19,151.875c17.158,5.091,26.956,23.114,21.867,40.276
			c-5.084,17.163-23.118,26.967-40.274,21.875c-17.165-5.086-26.956-23.133-21.874-40.286
			C212.993,156.587,231.028,146.789,248.19,151.875z M183.144,77.096c10.648-14.396,30.942-17.429,45.324-6.768
			c14.395,10.645,17.426,30.948,6.776,45.325c-10.645,14.383-30.942,17.421-45.329,6.77
			C175.527,111.776,172.493,91.489,183.144,77.096z M162.333,157.526c4.367,0,7.906,3.543,7.906,7.912
			c0,4.375-3.539,7.902-7.906,7.902c-4.373,0-7.91-3.527-7.91-7.902C154.423,161.069,157.96,157.526,162.333,157.526z
			 M101.431,69.207c14.922-9.884,35.026-5.79,44.905,9.138c9.884,14.927,5.796,35.033-9.135,44.917
			c-14.923,9.87-35.034,5.783-44.917-9.137C82.409,99.19,86.503,79.084,101.431,69.207z M78.918,150.188
			c17.407-4.176,34.901,6.551,39.083,23.949c4.178,17.407-6.55,34.904-23.949,39.078c-17.412,4.181-34.903-6.537-39.08-23.941
			C50.796,171.858,61.514,154.373,78.918,150.188z"/>
	</g>
	<path fill="#7FA4B8" d="M51.509,162.337c0,61.213,49.604,110.836,110.833,110.836c61.211,0,110.833-49.623,110.833-110.836
		c0-61.208-49.622-110.835-110.833-110.835C101.112,51.502,51.509,101.129,51.509,162.337z"/>
	<path fill="none" stroke="#FFFFFF" stroke-miterlimit="10" d="M0.5,162.337c0,89.378,72.442,161.84,161.842,161.84
		c89.376,0,161.84-72.462,161.84-161.84c0-89.375-72.464-161.837-161.84-161.837C72.942,0.5,0.5,72.962,0.5,162.337z"/>
	<path fill="#D8C9C5" d="M320.257,162.337c0-87.202-70.713-157.912-157.915-157.912c-87.221,0-157.917,70.71-157.917,157.912
		c0,87.219,70.696,157.918,157.917,157.918C249.544,320.255,320.257,249.556,320.257,162.337z M73.08,151.553
		c22.214,0,40.218,18.004,40.218,40.208c0,22.209-18.004,40.218-40.218,40.218c-22.216,0-40.21-18.009-40.21-40.218
		C32.87,169.557,50.864,151.553,73.08,151.553z M147.628,89.757c0,22.206-18.004,40.215-40.215,40.215
		c-22.224,0-40.213-18.009-40.213-40.215c0-22.209,17.989-40.218,40.213-40.218C129.624,49.539,147.628,67.548,147.628,89.757z
		 M162.342,219.227c22.204,0,40.211,18.009,40.211,40.213c0,22.209-18.007,40.216-40.211,40.216
		c-22.223,0-40.213-18.007-40.213-40.216C122.129,237.235,140.119,219.227,162.342,219.227z M259.446,85.832
		c0,22.209-18.011,40.218-40.215,40.218c-22.223,0-40.217-18.009-40.217-40.218c0-22.204,17.994-40.213,40.217-40.213
		C241.436,45.619,259.446,63.628,259.446,85.832z M292.791,193.724c0,22.209-18.005,40.217-40.211,40.217
		c-22.223,0-40.22-18.008-40.22-40.217c0-22.204,17.997-40.215,40.22-40.215C274.786,153.508,292.791,171.52,292.791,193.724z"/>
	<path fill="#D76B4A" d="M185.88,162.337c0,12.999-10.545,23.541-23.538,23.541c-13.01,0-23.543-10.542-23.543-23.541
		c0-13.012,10.533-23.541,23.543-23.541C175.335,138.796,185.88,149.325,185.88,162.337z"/>
</g>
<path opacity="0.1" d="M315.116,112.958c5.216,15.514,8.086,32.104,8.086,49.375c0,83.565-66.188,151.642-148.986,154.759
	c-15.836-101.113-4.329-207.787-7.004-309.638c0.363-0.002,0.719-0.027,1.082-0.027c54.054,0,101.622,27.71,129.336,69.679
	l117.637,0.722l21.701,35.13H315.116z"/>
</svg>
