<?xml version="1.0" encoding="utf-8"?>
<!-- Generator: Adobe Illustrator 17.0.0, SVG Export Plug-In . SVG Version: 6.00 Build 0)  -->
<!DOCTYPE svg PUBLIC "-//W3C//DTD SVG 1.1//EN" "http://www.w3.org/Graphics/SVG/1.1/DTD/svg11.dtd">
<svg version="1.1" xmlns="http://www.w3.org/2000/svg" xmlns:xlink="http://www.w3.org/1999/xlink" x="0px" y="0px"
	 width="326.889px" height="189.216px" viewBox="0 0 326.889 189.216" enable-background="new 0 0 326.889 189.216"
	 xml:space="preserve">
<pattern  x="-83.443" y="358.045" width="26" height="26" patternUnits="userSpaceOnUse" id="Nuovo_campione_pattern_10" viewBox="0 -26 26 26" overflow="visible">
	<g>
		<polygon fill="none" points="0,0 26,0 26,-26 0,-26 		"/>
		<g>
			<polygon fill="none" points="0,0 26,0 26,-26 0,-26 			"/>
			<polygon fill="#32AE95" points="26,-26 0,-26 0,0 26,0 			"/>
		</g>
	</g>
</pattern>
<pattern  x="-83.443" y="358.045" width="26" height="26" patternUnits="userSpaceOnUse" id="Nuovo_campione_pattern_11" viewBox="0 -26 26 26" overflow="visible">
	<g>
		<polygon fill="none" points="0,0 26,0 26,-26 0,-26 		"/>
		<g>
			<polygon fill="none" points="0,-26 26,-26 26,0 0,0 			"/>
			<polygon fill="#FAC100" points="26,-26 0,-26 0,0 26,0 			"/>
		</g>
	</g>
</pattern>
<pattern  x="-83.443" y="358.045" width="26" height="26" patternUnits="userSpaceOnUse" id="Nuovo_campione_pattern_12" viewBox="0 -26 26 26" overflow="visible">
	<g>
		<polygon fill="none" points="0,0 26,0 26,-26 0,-26 		"/>
		<g>
			<polygon fill="none" points="0,-26 26,-26 26,0 0,0 			"/>
			<polygon fill="#173140" points="26,-26 0,-26 0,0 26,0 			"/>
		</g>
	</g>
</pattern>
<pattern  x="-83.443" y="358.045" width="26" height="26" patternUnits="userSpaceOnUse" id="Nuovo_campione_pattern_2" viewBox="0 -26 26 26" overflow="visible">
	<g>
		<polygon fill="none" points="0,0 26,0 26,-26 0,-26 		"/>
		<g>
			<polygon fill="none" points="0,-26 26,-26 26,0 0,0 			"/>
			<polygon fill="#FD3B2C" points="26,-26 0,-26 0,0 26,0 			"/>
		</g>
	</g>
</pattern>
<pattern  x="-83.443" y="358.045" width="26" height="26" patternUnits="userSpaceOnUse" id="Nuovo_campione_pattern_3" viewBox="0 -26 26 26" overflow="visible">
	<g>
		<polygon fill="none" points="0,0 26,0 26,-26 0,-26 		"/>
		<polygon fill="#FD3B2C" points="26,0 0,0 0,-26 26,-26 		"/>
	</g>
</pattern>
<pattern  x="-83.443" y="358.045" width="26" height="26" patternUnits="userSpaceOnUse" id="Nuovo_campione_pattern_6" viewBox="0 -26 26 26" overflow="visible">
	<g>
		<polygon fill="none" points="0,-26 26,-26 26,0 0,0 		"/>
		<polygon fill="#32AE95" points="26,0 0,0 0,-26 26,-26 		"/>
	</g>
</pattern>
<pattern  x="-83.443" y="358.045" width="26" height="26" patternUnits="userSpaceOnUse" id="Nuovo_campione_pattern_7" viewBox="0 -26 26 26" overflow="visible">
	<g>
		<polygon fill="none" points="0,0 26,0 26,-26 0,-26 		"/>
		<polygon fill="#173140" points="26,0 0,0 0,-26 26,-26 		"/>
	</g>
</pattern>
<pattern  x="-83.443" y="358.045" width="26" height="26" patternUnits="userSpaceOnUse" id="Nuovo_campione_pattern_9" viewBox="0 -26 26 26" overflow="visible">
	<g>
		<polygon fill="none" points="0,0 26,0 26,-26 0,-26 		"/>
		<g>
			<polygon fill="none" points="0,-26 26,-26 26,0 0,0 			"/>
			<polygon fill="#FA5B0E" points="26,-26 0,-26 0,0 26,0 			"/>
		</g>
	</g>
</pattern>
<g id="background">
</g>
<g id="objects">
	<g>
		<g>
			<path fill="url(#Nuovo_campione_pattern_7)" d="M3.524,176.008c0,0,6.941-0.223,8.459,4.241l42.946-0.119
				c0,0,3.655-0.62,4.663-3.262l4.753-7.428c0,0,2.632-3.36,5.993,0.389c3.362,3.749,6.016,8.415,6.016,8.415
				s1.531,2.229,4.272,1.815c2.741-0.414,40.626-0.063,40.626-0.063s1.626-0.054,3.348-1.684c1.722-1.629,1.112-2.237,4.463-2.247
				c3.351-0.009,4.063,0.294,4.063,0.294s1.115-0.715,1.012-1.63c-0.104-0.913,0.942-26.207,0.942-26.207s0.632-0.839-0.511-1.598
				c-1.146-0.758-39.609-26.398-39.609-26.398s-4.352-3.188-7.39,0.02c0,0-5.69,8.622-4.148,15.017
				c1.541,6.395,3.685,10.503,5.729,6.306l0.45-3.048l1.509-5.261c0,0,0.225-1.447,1.523-0.308
				c1.298,1.139,14.502,10.168,14.502,10.168s0.916,0.606,1.528,1.748c0.613,1.141,1.683,2.661,1.683,2.661l-85.697,0.238
				l2.73-4.654c0,0,0.683-0.84,1.67-1.758c0.988-0.916,12.996-10.624,12.996-10.624s0.836-0.917,1.22,0.53
				c0.386,1.446,2.233,8.602,2.233,8.602s0.996,1.977,2.365,1.135c1.368-0.841,4.178-4.277,2.707-12.881
				c-1.471-8.604-5.296-14.307-12.821-8.268L1.032,146.838c0,0-1.294,0.457-0.984,2.211c0.31,1.753,2.815,26.122,2.815,26.122
				S2.879,175.998,3.524,176.008z"/>
			<path fill="url(#Nuovo_campione_pattern_6)" d="M18.708,175.508l30.47-0.084c0,0,2.59-0.312,3.038-3.512
				c0.448-3.201-0.802-14.624-0.802-14.624s-0.467-3.274-6.103-2.916l-25.443-0.06c0,0-5.181-0.083-4.861,5.21
				c0.319,5.293,0.794,11.614,0.794,11.614S15.889,175.057,18.708,175.508z"/>
			<path fill="url(#Nuovo_campione_pattern_3)" d="M83.039,171.013c0,0-0.092,3.859,3.262,4.307
				c3.353,0.448,29.353-0.081,29.353-0.081s3.045-0.262,3.648-2.905c0.602-2.643,0.572-13.51,0.572-13.51s0.292-4.503-4.888-4.777
				c-5.18-0.274-26.916,0.075-26.916,0.075s-4.675-0.783-5.065,4.601C82.612,164.108,83.039,171.013,83.039,171.013z"/>
			<g>
				<defs>
					<path id="SVGID_1_" d="M18.708,175.508l30.47-0.084c0,0,2.59-0.312,3.038-3.512c0.448-3.201-0.802-14.624-0.802-14.624
						s-0.467-3.274-6.103-2.916l-25.443-0.06c0,0-5.181-0.083-4.861,5.21c0.319,5.293,0.794,11.614,0.794,11.614
						S15.889,175.057,18.708,175.508z"/>
				</defs>
				<clipPath id="SVGID_2_">
					<use xlink:href="#SVGID_1_"  overflow="visible"/>
				</clipPath>
				<g opacity="0.75" clip-path="url(#SVGID_2_)">
					<path fill="#E5E5E5" d="M16.223,156.984c1.083,4.989,4.581,9.311,8.401,12.574c0.872,0.745,2.171,0.251,2.225-0.929
						c0.19-4.114-2.323-8.065-1.324-12.15c-0.712,0.19-1.424,0.381-2.136,0.57c2.844,2.974,3.606,7.466,5.943,10.823
						c2.611,3.752,5.853,7.619,9.947,9.777c0.647,0.341,1.143-0.43,0.733-0.956c-2.941-3.764-6.45-7.004-9.133-10.997
						c-2.235-3.328-2.864-7.487-5.686-10.461c-0.658-0.693-1.907-0.349-2.137,0.57c-1.109,4.438,1.34,8.432,1.183,12.83
						c0.741-0.311,1.483-0.62,2.225-0.929c-3.714-3.107-6.49-7.115-8.808-11.333C17.211,155.563,16.04,156.14,16.223,156.984
						L16.223,156.984z"/>
				</g>
			</g>
			<g>
				<defs>
					<path id="SVGID_3_" d="M83.039,171.013c0,0-0.092,3.859,3.262,4.307c3.353,0.448,29.353-0.081,29.353-0.081
						s3.045-0.262,3.648-2.905c0.602-2.643,0.572-13.51,0.572-13.51s-10.069-5.05-4.888-4.777
						c47.694,2.519,38.514-0.974-26.916,0.075c0,0-4.675-0.783-5.065,4.601C82.612,164.108,83.039,171.013,83.039,171.013z"/>
				</defs>
				<clipPath id="SVGID_4_">
					<use xlink:href="#SVGID_3_"  overflow="visible"/>
				</clipPath>
				<g opacity="0.75" clip-path="url(#SVGID_4_)">
					<path fill="#E5E5E5" d="M80.5,154.43c2.21,3.476,4.373,6.979,6.78,10.331c2.318,3.225,5.009,6.616,8.725,8.272
						c0.9,0.4,1.768-0.25,1.592-1.232c-0.233-1.313,0.266-2.666,0.327-3.977c-0.614,0.257-1.229,0.512-1.843,0.769
						c1.427,1.116,2.786,2.31,4.128,3.526c1.397,1.267,2.809,2.788,4.567,3.539c0.547,0.232,1.19-0.268,0.852-0.858
						c-0.851-1.494-2.24-2.673-3.493-3.826c-1.469-1.352-2.96-2.678-4.53-3.913c-0.736-0.578-1.794-0.236-1.843,0.77
						c-0.077,1.552-0.535,2.992-0.259,4.554c0.531-0.41,1.061-0.82,1.591-1.231c-7.438-3.334-9.821-12.36-15.756-17.373
						C80.895,153.403,80.153,153.888,80.5,154.43L80.5,154.43z"/>
				</g>
			</g>
		</g>
	</g>
	<g id="objects_1_">
		<g>
			<g>
				<g>
					<g>
						<g>
							<g>
								<pattern  id="SVGID_5_" xlink:href="#Nuovo_campione_pattern_12" patternTransform="matrix(1 0 0 -1 -265.608 -17268.459)">
								</pattern>
								<path fill="url(#SVGID_5_)" d="M254.481,65.147c1.075,32.414,4.653,64.631,6.625,96.99c5.454,0,7.798,0,12.172,0
									c-1.405-32.35-4.011-64.627-5.091-96.992c0,0-0.756-7.875-6.968-7.875C255.372,57.27,254.481,65.147,254.481,65.147z"/>
								<pattern  id="SVGID_6_" xlink:href="#Nuovo_campione_pattern_12" patternTransform="matrix(1 0 0 -1 -265.608 -17268.459)">
								</pattern>
								<path fill="url(#SVGID_6_)" d="M308.615,65.14c-0.968,32.395-3.346,64.679-5.692,96.997c4.374,0,6.718,0,12.172,0
									c2.896-32.323,6.261-64.543,7.226-96.999c0,0-0.536-7.868-6.749-7.868C309.725,57.27,308.615,65.14,308.615,65.14z"/>
								<path fill="#E5E5E5" d="M268.311,65.145c1.076,32.365,3.67,64.642,5.067,96.992c4.366,0,6.303,0,10.136,0
									c-0.198-32.338-1.194-64.66-1.649-96.994c0,0-0.674-7.873-6.886-7.873C269.131,57.27,268.311,65.145,268.311,65.145z"/>
								<pattern  id="SVGID_7_" xlink:href="#Nuovo_campione_pattern_12" patternTransform="matrix(1 0 0 -1 -265.608 -17268.459)">
								</pattern>
								<path fill="url(#SVGID_7_)" d="M281.717,65.143c0.464,32.334,1.479,64.656,1.692,96.994c3.836,0,5.641,0,9.48,0
									c1.182-32.326,1.974-64.65,2.332-96.996c0,0-0.544-7.871-6.757-7.871C282.618,57.27,281.717,65.143,281.717,65.143z"/>
								<path fill="#E5E5E5" d="M295.083,65.142c-0.35,32.345-1.124,64.67-2.292,96.996c3.835,0,5.775,0,10.15,0
									c2.347-32.318,4.727-64.602,5.696-96.997c0,0-0.465-7.87-6.676-7.87C296.112,57.27,295.083,65.142,295.083,65.142z"/>
							</g>
						</g>
						<g>
							<g>
								<pattern  id="SVGID_8_" xlink:href="#Nuovo_campione_pattern_12" patternTransform="matrix(1 0 0 -1 -265.608 -17268.459)">
								</pattern>
								<path fill="none" stroke="url(#SVGID_8_)" stroke-width="2.0465" stroke-linecap="round" stroke-linejoin="round" d="
									M254.481,65.147c1.075,32.414,4.653,64.631,6.625,96.99c5.454,0,7.798,0,12.172,0c-1.405-32.35-4.011-64.627-5.091-96.992
									c0,0-0.756-7.875-6.968-7.875C255.372,57.27,254.481,65.147,254.481,65.147z"/>
								<pattern  id="SVGID_9_" xlink:href="#Nuovo_campione_pattern_12" patternTransform="matrix(1 0 0 -1 -265.608 -17268.459)">
								</pattern>
								<path fill="none" stroke="url(#SVGID_9_)" stroke-width="2.0465" stroke-linecap="round" stroke-linejoin="round" d="
									M308.615,65.14c-0.968,32.395-3.346,64.679-5.692,96.997c4.374,0,6.718,0,12.172,0c2.896-32.323,6.261-64.543,7.226-96.999
									c0,0-0.536-7.868-6.749-7.868C309.725,57.27,308.615,65.14,308.615,65.14z"/>
								
									<pattern  id="SVGID_10_" xlink:href="#Nuovo_campione_pattern_12" patternTransform="matrix(1 0 0 -1 -265.608 -17268.459)">
								</pattern>
								<path fill="none" stroke="url(#SVGID_10_)" stroke-width="2.0465" stroke-linecap="round" stroke-linejoin="round" d="
									M268.311,65.145c1.076,32.365,3.67,64.642,5.067,96.992c4.366,0,6.303,0,10.136,0c-0.198-32.338-1.194-64.66-1.649-96.994
									c0,0-0.674-7.873-6.886-7.873C269.131,57.27,268.311,65.145,268.311,65.145z"/>
								
									<pattern  id="SVGID_11_" xlink:href="#Nuovo_campione_pattern_12" patternTransform="matrix(1 0 0 -1 -265.608 -17268.459)">
								</pattern>
								<path fill="none" stroke="url(#SVGID_11_)" stroke-width="2.0465" stroke-linecap="round" stroke-linejoin="round" d="
									M281.717,65.143c0.464,32.334,1.479,64.656,1.692,96.994c3.836,0,5.641,0,9.48,0c1.182-32.326,1.974-64.65,2.332-96.996
									c0,0-0.544-7.871-6.757-7.871C282.618,57.27,281.717,65.143,281.717,65.143z"/>
								
									<pattern  id="SVGID_12_" xlink:href="#Nuovo_campione_pattern_12" patternTransform="matrix(1 0 0 -1 -265.608 -17268.459)">
								</pattern>
								<path fill="none" stroke="url(#SVGID_12_)" stroke-width="2.0465" stroke-linecap="round" stroke-linejoin="round" d="
									M295.083,65.142c-0.35,32.345-1.124,64.67-2.292,96.996c3.835,0,5.775,0,10.15,0c2.347-32.318,4.727-64.602,5.696-96.997
									c0,0-0.465-7.87-6.676-7.87C296.112,57.27,295.083,65.142,295.083,65.142z"/>
							</g>
						</g>
					</g>
					<pattern  id="SVGID_13_" xlink:href="#Nuovo_campione_pattern_11" patternTransform="matrix(1 0 0 -1 -265.608 -17268.459)">
					</pattern>
					<path fill="none" stroke="url(#SVGID_13_)" stroke-width="4.9697" stroke-linecap="round" stroke-linejoin="round" d="
						M287.085,54.634l12.568-47.872c0,0,1.398-7.263,7.981-2.861s9.576,7.263,9.576,7.263"/>
					<pattern  id="SVGID_14_" xlink:href="#Nuovo_campione_pattern_10" patternTransform="matrix(1 0 0 -1 -265.608 -17268.459)">
					</pattern>
					<pattern  id="SVGID_15_" xlink:href="#Nuovo_campione_pattern_10" patternTransform="matrix(1 0 0 -1 -265.608 -17268.459)">
					</pattern>
					
						<polygon fill="url(#SVGID_14_)" stroke="url(#SVGID_15_)" stroke-width="4.9697" stroke-linecap="round" stroke-linejoin="round" points="
						252.388,63.622 324.404,63.622 317.657,52.891 308.888,52.832 306.016,48.832 271.254,48.595 267.81,52.552 257.468,52.482 
											"/>
					<pattern  id="SVGID_16_" xlink:href="#Nuovo_campione_pattern_9" patternTransform="matrix(1 0 0 -1 -265.608 -17268.459)">
					</pattern>
					<circle fill="url(#SVGID_16_)" cx="317.512" cy="11.438" r="2.352"/>
				</g>
				<g>
					<g>
						<g>
							<g>
								<pattern  id="SVGID_17_" xlink:href="#Nuovo_campione_pattern_2" patternTransform="matrix(1 0 0 -1 -265.608 -17268.459)">
								</pattern>
								<path fill="url(#SVGID_17_)" d="M190.36,103.294c4.559,26.484,7.179,52.479,6.635,79.368c6.474,0,9.256,0,14.448,0
									c-0.084-26.661-2.156-52.947-5.327-79.41c0,0-1.613-6.808-8.987-6.808C190.189,96.445,190.36,103.294,190.36,103.294z"/>
								<pattern  id="SVGID_18_" xlink:href="#Nuovo_campione_pattern_2" patternTransform="matrix(1 0 0 -1 -265.608 -17268.459)">
								</pattern>
								<path fill="url(#SVGID_18_)" d="M252.574,103.128c-3.425,26.476-5.314,52.848-5.941,79.534c5.191,0,7.974,0,14.447,0
									c0.018-26.951,2.368-53.067,7.249-79.576c0,0,0.694-6.642-6.68-6.642C254.709,96.445,252.574,103.128,252.574,103.128z"/>
								<path fill="#E5E5E5" d="M206.259,103.252c3.155,26.463,5.217,52.75,5.303,79.41c5.183,0,7.482,0,12.032,0
									c0.075-26.508-0.718-52.966-1.759-79.452c0,0-0.998-6.766-8.372-6.766C206.521,96.445,206.259,103.252,206.259,103.252z"/>
								<pattern  id="SVGID_19_" xlink:href="#Nuovo_campione_pattern_2" patternTransform="matrix(1 0 0 -1 -265.608 -17268.459)">
								</pattern>
								<path fill="url(#SVGID_19_)" d="M221.665,103.211c1.067,26.485,1.875,52.942,1.804,79.451c4.553,0,6.696,0,11.252,0
									c0.477-26.516,1.158-53.004,2.46-79.493c0,0-0.337-6.725-7.71-6.725C222.531,96.445,221.665,103.211,221.665,103.211z"/>
								<path fill="#E5E5E5" d="M237.023,103.17c-1.278,26.489-1.944,52.978-2.417,79.493c4.553,0,6.855,0,12.048,0
									c0.626-26.686,2.517-53.058,5.945-79.534c0,0,0.265-6.684-7.109-6.684C238.55,96.445,237.023,103.17,237.023,103.17z"/>
							</g>
						</g>
						<g>
							<g>
								<pattern  id="SVGID_20_" xlink:href="#Nuovo_campione_pattern_2" patternTransform="matrix(1 0 0 -1 -265.608 -17268.459)">
								</pattern>
								<path fill="none" stroke="url(#SVGID_20_)" stroke-width="2.0217" stroke-linecap="round" stroke-linejoin="round" d="
									M190.36,103.294c4.559,26.484,7.179,52.479,6.635,79.368c6.474,0,9.256,0,14.448,0c-0.084-26.661-2.156-52.947-5.327-79.41
									c0,0-1.613-6.808-8.987-6.808C190.189,96.445,190.36,103.294,190.36,103.294z"/>
								<pattern  id="SVGID_21_" xlink:href="#Nuovo_campione_pattern_2" patternTransform="matrix(1 0 0 -1 -265.608 -17268.459)">
								</pattern>
								<path fill="none" stroke="url(#SVGID_21_)" stroke-width="2.0217" stroke-linecap="round" stroke-linejoin="round" d="
									M252.574,103.128c-3.425,26.476-5.314,52.848-5.941,79.534c5.191,0,7.974,0,14.447,0
									c0.018-26.951,2.368-53.067,7.249-79.576c0,0,0.694-6.642-6.68-6.642C254.709,96.445,252.574,103.128,252.574,103.128z"/>
								<pattern  id="SVGID_22_" xlink:href="#Nuovo_campione_pattern_2" patternTransform="matrix(1 0 0 -1 -265.608 -17268.459)">
								</pattern>
								<path fill="none" stroke="url(#SVGID_22_)" stroke-width="2.0217" stroke-linecap="round" stroke-linejoin="round" d="
									M206.259,103.252c3.155,26.463,5.217,52.75,5.303,79.41c5.183,0,7.482,0,12.032,0c0.075-26.508-0.718-52.966-1.759-79.452
									c0,0-0.998-6.766-8.372-6.766C206.521,96.445,206.259,103.252,206.259,103.252z"/>
								<pattern  id="SVGID_23_" xlink:href="#Nuovo_campione_pattern_2" patternTransform="matrix(1 0 0 -1 -265.608 -17268.459)">
								</pattern>
								<path fill="none" stroke="url(#SVGID_23_)" stroke-width="2.0217" stroke-linecap="round" stroke-linejoin="round" d="
									M221.665,103.211c1.067,26.485,1.875,52.942,1.804,79.451c4.553,0,6.696,0,11.252,0c0.477-26.516,1.158-53.004,2.46-79.493
									c0,0-0.337-6.725-7.71-6.725C222.531,96.445,221.665,103.211,221.665,103.211z"/>
								<pattern  id="SVGID_24_" xlink:href="#Nuovo_campione_pattern_2" patternTransform="matrix(1 0 0 -1 -265.608 -17268.459)">
								</pattern>
								<path fill="none" stroke="url(#SVGID_24_)" stroke-width="2.0217" stroke-linecap="round" stroke-linejoin="round" d="
									M237.023,103.17c-1.278,26.489-1.944,52.978-2.417,79.493c4.553,0,6.855,0,12.048,0c0.626-26.686,2.517-53.058,5.945-79.534
									c0,0,0.265-6.684-7.109-6.684C238.55,96.445,237.023,103.17,237.023,103.17z"/>
							</g>
						</g>
					</g>
					<g>
						<g>
							<path fill="#FFF6DE" d="M223.811,83.113c0,0,8.513-5.842,10.539-0.699c1.398,3.553-4.441,4.535-4.441,4.535
								s7.99-1.647,6.783,5.896c-1.209,7.543-8.987,1.424-8.987,1.424s5.312,3.948,0.579,6.795
								c-4.733,2.851-7.568-5.783-7.568-5.783s-5.771,2.808-6.513-2.404c-0.562-3.953,3.897-4.658,3.897-4.658
								s-4.176-4.034-0.41-6.284C219.779,80.687,222.54,81.972,223.811,83.113z"/>
							<path fill="#F0CC91" d="M222.987,86.052c0,0,4.652-3.193,5.76-0.38c0.766,1.94-2.426,2.477-2.426,2.477
								s4.367-0.9,3.705,3.223c-0.659,4.125-4.912,0.778-4.912,0.778s2.904,2.156,0.316,3.716c-2.588,1.559-4.137-3.161-4.137-3.161
								s-3.154,1.533-3.561-1.316c-0.306-2.158,2.131-2.545,2.131-2.545s-2.283-2.203-0.223-3.434
								C220.784,84.728,222.294,85.428,222.987,86.052z"/>
							<path fill="#FFFFFF" d="M221.079,82.119c0,0-5.348-1.002-4.272,3.144C216.806,85.264,216.683,82.616,221.079,82.119z"/>
							<path fill="#FFFFFF" d="M217.968,95.43c0,0-5.267-1.367-2.534-4.66C215.434,90.771,214.197,93.113,217.968,95.43z"/>
							<path fill="#FFFFFF" d="M229.002,96.52c0,0,0.638,5.405-3.423,4.054C225.579,100.573,228.21,100.875,229.002,96.52z"/>
							<path fill="#FFFFFF" d="M234.4,88.738c0,0,3.524,5.829-1.808,6.388C232.593,95.126,235.751,94.108,234.4,88.738z"/>
							<path fill="#FFFFFF" d="M231.763,80.751c0,0,3.729,2.666,0.582,4.433C232.345,85.184,234.024,83.714,231.763,80.751z"/>
						</g>
						<g>
							<path fill="#FFF6DE" d="M238.559,57.933c0,0,7.46-5.122,9.238-0.613c1.227,3.114-3.895,3.976-3.895,3.976
								s7.006-1.443,5.945,5.168c-1.059,6.612-7.877,1.248-7.877,1.248s4.655,3.461,0.508,5.958c-4.148,2.497-6.635-5.07-6.635-5.07
								s-5.059,2.46-5.709-2.108c-0.492-3.464,3.415-4.083,3.415-4.083s-3.66-3.536-0.356-5.508
								C235.023,55.808,237.444,56.934,238.559,57.933z"/>
							<path fill="#F0CC91" d="M237.836,60.51c0,0,4.077-2.799,5.05-0.333c0.67,1.701-2.127,2.171-2.127,2.171
								s3.828-0.789,3.248,2.825c-0.579,3.617-4.306,0.683-4.306,0.683s2.544,1.891,0.276,3.257
								c-2.268,1.366-3.625-2.771-3.625-2.771s-2.766,1.343-3.121-1.154c-0.27-1.891,1.867-2.231,1.867-2.231s-2-1.932-0.195-3.011
								C235.903,59.349,237.227,59.963,237.836,60.51z"/>
							<path fill="#FFFFFF" d="M236.163,57.063c0,0-4.688-0.878-3.745,2.756C232.418,59.819,232.309,57.497,236.163,57.063z"/>
							<path fill="#FFFFFF" d="M233.434,68.731c0,0-4.616-1.198-2.22-4.086C231.215,64.645,230.13,66.699,233.434,68.731z"/>
							<path fill="#FFFFFF" d="M243.108,69.686c0,0,0.561,4.738-3,3.553C240.108,73.239,242.413,73.503,243.108,69.686z"/>
							<path fill="#FFFFFF" d="M247.841,62.864c0,0,3.09,5.109-1.584,5.599C246.257,68.463,249.025,67.572,247.841,62.864z"/>
							<path fill="#FFFFFF" d="M245.528,55.863c0,0,3.27,2.337,0.51,3.886C246.038,59.749,247.511,58.461,245.528,55.863z"/>
						</g>
						<g>
							<path fill="#FFF6DE" d="M194.273,99.206c0,0-8.841-2.179-6.642-6.533c1.517-3.005,5.592,0.267,5.592,0.267
								s-5.773-4.297-0.094-7.927c5.675-3.63,6.21,5.087,6.21,5.087s-0.517-5.816,4.139-4.37c4.651,1.444,0.627,8.378,0.627,8.378
								s5.236,2.157,2.237,5.703c-2.274,2.688-5.355,0.164-5.355,0.164s-0.207,5.117-3.899,3.957
								C195.043,103.288,194.266,100.713,194.273,99.206z"/>
							<path fill="#F0CC91" d="M196.695,98.027c0,0-4.834-1.191-3.633-3.572c0.832-1.643,3.057,0.147,3.057,0.147
								s-3.153-2.351-0.05-4.334c3.102-1.987,3.393,2.78,3.393,2.78s-0.282-3.18,2.264-2.389c2.543,0.79,0.345,4.58,0.345,4.58
								s2.861,1.179,1.222,3.117c-1.245,1.467-2.929,0.09-2.929,0.09s-0.111,2.796-2.131,2.163
								C197.115,100.256,196.69,98.849,196.695,98.027z"/>
							<path fill="#FFFFFF" d="M195.222,101.589c0,0,2.477,4.115,4.577,0.971C199.8,102.56,198.129,104.197,195.222,101.589z"/>
							<path fill="#FFFFFF" d="M205.817,95.832c0,0,2.19,4.271-1.586,4.401C204.231,100.234,206.502,99.675,205.817,95.832z"/>
							<path fill="#FFFFFF" d="M200.061,87.924c0,0,3.186-3.593,4.679-0.122C204.74,87.801,203.395,85.889,200.061,87.924z"/>
							<path fill="#FFFFFF" d="M191.768,88.932c0,0,1.772-5.741,5.267-2.556C197.035,86.376,194.515,84.893,191.768,88.932z"/>
							<path fill="#FFFFFF" d="M188.055,95.356c0,0-0.431-4.022,2.578-2.985C190.634,92.371,188.678,92.125,188.055,95.356z"/>
						</g>
						<g>
							<path fill="#FFF6DE" d="M243.415,77.111c0,0-7.992-1.969-6.004-5.907c1.371-2.716,5.055,0.241,5.055,0.241
								s-5.218-3.884-0.084-7.166c5.131-3.281,5.615,4.599,5.615,4.599s-0.467-5.258,3.74-3.95c4.205,1.305,0.568,7.574,0.568,7.574
								s4.734,1.949,2.024,5.156c-2.057,2.431-4.842,0.147-4.842,0.147s-0.188,4.626-3.525,3.577
								C244.112,80.803,243.408,78.473,243.415,77.111z"/>
							<path fill="#F0CC91" d="M245.605,76.044c0,0-4.37-1.076-3.284-3.228c0.751-1.486,2.764,0.133,2.764,0.133
								s-2.852-2.125-0.045-3.919c2.804-1.795,3.066,2.513,3.066,2.513s-0.254-2.874,2.047-2.16
								c2.299,0.714,0.311,4.141,0.311,4.141s2.588,1.067,1.105,2.819c-1.123,1.327-2.646,0.08-2.646,0.08s-0.101,2.529-1.928,1.955
								C245.984,78.061,245.601,76.788,245.605,76.044z"/>
							<path fill="#FFFFFF" d="M244.274,79.267c0,0,2.24,3.718,4.139,0.877C248.413,80.144,246.901,81.624,244.274,79.267z"/>
							<path fill="#FFFFFF" d="M253.852,74.061c0,0,1.979,3.861-1.434,3.98C252.419,78.041,254.472,77.535,253.852,74.061z"/>
							<path fill="#FFFFFF" d="M248.649,66.911c0,0,2.879-3.248,4.229-0.111C252.879,66.801,251.662,65.072,248.649,66.911z"/>
							<path fill="#FFFFFF" d="M241.151,67.823c0,0,1.602-5.19,4.762-2.311C245.913,65.512,243.634,64.171,241.151,67.823z"/>
							<path fill="#FFFFFF" d="M237.793,73.63c0,0-0.388-3.635,2.331-2.697C240.124,70.933,238.357,70.71,237.793,73.63z"/>
						</g>
						<g>
							<path fill="#FFF6DE" d="M208.675,79.228c0,0-6.863-1.692-5.155-5.073c1.178-2.332,4.341,0.208,4.341,0.208
								s-4.483-3.337-0.073-6.154c4.405-2.817,4.82,3.948,4.82,3.948s-0.4-4.514,3.213-3.391c3.611,1.122,0.488,6.503,0.488,6.503
								s4.064,1.675,1.737,4.429c-1.766,2.087-4.157,0.126-4.157,0.126s-0.162,3.973-3.027,3.071
								C209.274,82.395,208.669,80.397,208.675,79.228z"/>
							<path fill="#F0CC91" d="M210.555,78.312c0,0-3.752-0.926-2.82-2.772c0.645-1.276,2.374,0.113,2.374,0.113
								s-2.448-1.824-0.038-3.364c2.407-1.543,2.633,2.158,2.633,2.158s-0.219-2.467,1.757-1.854
								c1.974,0.613,0.268,3.555,0.268,3.555s2.222,0.917,0.949,2.422c-0.965,1.138-2.273,0.068-2.273,0.068
								s-0.087,2.172-1.656,1.678C210.881,80.042,210.553,78.95,210.555,78.312z"/>
							<path fill="#FFFFFF" d="M209.412,81.077c0,0,1.924,3.194,3.554,0.753C212.966,81.831,211.67,83.103,209.412,81.077z"/>
							<path fill="#FFFFFF" d="M217.639,76.608c0,0,1.699,3.316-1.232,3.417C216.407,80.026,218.169,79.59,217.639,76.608z"/>
							<path fill="#FFFFFF" d="M213.169,70.469c0,0,2.473-2.789,3.633-0.095C216.802,70.374,215.757,68.89,213.169,70.469z"/>
							<path fill="#FFFFFF" d="M206.73,71.251c0,0,1.377-4.457,4.09-1.985C210.82,69.266,208.863,68.116,206.73,71.251z"/>
							<path fill="#FFFFFF" d="M203.848,76.239c0,0-0.333-3.123,2-2.317C205.849,73.921,204.333,73.731,203.848,76.239z"/>
						</g>
						<g>
							<path fill="#F0CC91" d="M223.597,78.1c0,0,3.169,5.387-0.027,6.396c-2.201,0.694-2.55-2.878-2.55-2.878
								s0.655,4.897-3.848,3.849c-4.504-1.048-0.479-5.489-0.479-5.489s-2.61,3.039-4.129,0.06
								c-1.524-2.979,3.812-4.326,3.812-4.326s-1.452-3.606,1.729-3.832c2.409-0.173,2.647,2.55,2.647,2.55s2.614-2.351,3.813,0.02
								C225.233,75.763,224.339,77.379,223.597,78.1z"/>
							<path fill="#F0B563" d="M221.854,77.474c0,0,1.732,2.948-0.016,3.497c-1.2,0.379-1.391-1.572-1.391-1.572
								s0.358,2.678-2.105,2.105c-2.463-0.574-0.262-3.001-0.262-3.001s-1.425,1.661-2.258,0.032
								c-0.832-1.628,2.087-2.365,2.087-2.365s-0.795-1.971,0.943-2.094c1.321-0.092,1.447,1.396,1.447,1.396
								s1.426-1.286,2.085,0.012C222.749,76.199,222.263,77.082,221.854,77.474z"/>
							<path fill="#FFFFFF" d="M224.307,76.489c0,0,0.836-3.189-1.714-2.712C222.594,73.778,224.199,73.812,224.307,76.489z"/>
							<path fill="#FFFFFF" d="M216.404,74.045c0,0,1.047-3.123,2.918-1.332C219.322,72.713,217.965,71.868,216.404,74.045z"/>
							<path fill="#FFFFFF" d="M215.276,80.665c0,0-3.291,0.156-2.3-2.241C212.975,78.424,212.68,80.003,215.276,80.665z"/>
							<path fill="#FFFFFF" d="M219.75,84.256c0,0-3.672,1.882-3.781-1.363C215.969,82.893,216.449,84.843,219.75,84.256z"/>
							<path fill="#FFFFFF" d="M224.682,83c0,0-1.766,2.14-2.699,0.165C221.983,83.165,222.8,84.242,224.682,83z"/>
						</g>
						<g>
							<path fill="#FFF6DE" d="M209.602,78.28c0,0,6.878,3.283,4.339,6.484c-1.752,2.204-4.541-1.17-4.541-1.17
								s4.001,4.503-1.266,6.517c-5.27,2.014-4.231-5.222-4.231-5.222s-0.563,4.854-4.134,2.878
								c-3.57-1.971,0.905-6.976,0.905-6.976s-3.927-2.655-0.869-5.054c2.32-1.817,4.42,0.772,4.42,0.772s1.039-4.161,3.868-2.584
								C209.664,74.801,209.864,77.043,209.602,78.28z"/>
							<path fill="#F0CC91" d="M207.416,78.836c0,0,3.764,1.798,2.371,3.545c-0.957,1.204-2.479-0.64-2.479-0.64
								s2.188,2.462-0.692,3.562c-2.882,1.104-2.311-2.854-2.311-2.854s-0.309,2.653-2.265,1.573
								c-1.949-1.076,0.497-3.813,0.497-3.813s-2.145-1.452-0.474-2.764c1.27-0.99,2.417,0.425,2.417,0.425s0.563-2.274,2.115-1.412
								C207.451,76.936,207.56,78.161,207.416,78.836z"/>
							<path fill="#FFFFFF" d="M209.224,76.164c0,0-1.33-3.793-3.584-1.573C205.639,74.591,207.286,73.533,209.224,76.164z"/>
							<path fill="#FFFFFF" d="M199.566,79.087c0,0-1.074-3.873,2.042-3.338C201.608,75.749,199.656,75.821,199.566,79.087z"/>
							<path fill="#FFFFFF" d="M202.942,86.55c0,0-3.222,2.404-3.856-0.695C199.086,85.855,199.865,87.653,202.942,86.55z"/>
							<path fill="#FFFFFF" d="M209.914,87.128c0,0-2.426,4.407-4.752,1.201C205.162,88.329,206.978,89.973,209.914,87.128z"/>
							<path fill="#FFFFFF" d="M214.047,82.49c0,0-0.328,3.371-2.619,2.009C211.429,84.5,212.99,85.033,214.047,82.49z"/>
						</g>
						<g>
							<path fill="#FFF6DE" d="M207.505,88.624c0,0-1.723-8.072,2.699-8.002c3.051,0.047,1.996,4.668,1.996,4.668
								s1.222-6.408,6.428-3.215c5.208,3.193-1.69,7.078-1.69,7.078s4.54-2.719,5.202,1.649c0.662,4.365-6.584,3.828-6.584,3.828
								s0.311,5.123-3.768,4.081c-3.091-0.79-2.252-4.302-2.252-4.302s-4.259,1.854-4.772-1.615
								C204.479,90.868,206.27,89.216,207.505,88.624z"/>
							<path fill="#F0CC91" d="M209.424,90.132c0,0-0.94-4.414,1.478-4.374c1.667,0.025,1.089,2.55,1.089,2.55
								s0.666-3.503,3.514-1.756c2.847,1.745-0.924,3.868-0.924,3.868s2.48-1.488,2.845,0.902c0.362,2.387-3.6,2.093-3.6,2.093
								s0.171,2.799-2.059,2.231c-1.691-0.437-1.23-2.352-1.23-2.352s-2.327,1.014-2.608-0.886
								C207.774,91.358,208.752,90.455,209.424,90.132z"/>
							<path fill="#FFFFFF" d="M205.936,90.343c0,0-2.376,3.649,1.02,4.118C206.956,94.461,204.959,93.747,205.936,90.343z"/>
							<path fill="#FFFFFF" d="M214.824,96.705c0,0-2.617,3.477-4.215,0.451C210.609,97.156,211.961,98.785,214.824,96.705z"/>
							<path fill="#FFFFFF" d="M218.998,88.882c0,0,4.192,1.177,1.951,3.768C220.949,92.65,221.977,90.795,218.998,88.882z"/>
							<path fill="#FFFFFF" d="M214.893,82.515c0,0,5.385-0.827,4.17,3.285C219.064,85.801,219.275,83.156,214.893,82.515z"/>
							<path fill="#FFFFFF" d="M208.185,82.029c0,0,3.109-1.943,3.453,0.921C211.638,82.949,211.066,81.258,208.185,82.029z"/>
						</g>
						<g>
							<path fill="#FFF6DE" d="M214.529,65.893c0,0-1.47-6.891,2.304-6.83c2.604,0.042,1.704,3.985,1.704,3.985
								s1.043-5.471,5.487-2.745c4.445,2.726-1.443,6.041-1.443,6.041s3.875-2.32,4.439,1.408c0.566,3.727-5.619,3.267-5.619,3.267
								s0.266,4.373-3.216,3.484c-2.64-0.676-1.923-3.673-1.923-3.673s-3.634,1.582-4.072-1.379
								C211.945,67.809,213.476,66.398,214.529,65.893z"/>
							<path fill="#F0CC91" d="M216.167,67.181c0,0-0.801-3.768,1.262-3.733c1.423,0.021,0.93,2.176,0.93,2.176
								s0.57-2.99,2.999-1.499c2.432,1.491-0.788,3.303-0.788,3.303s2.117-1.27,2.427,0.769c0.311,2.038-3.072,1.787-3.072,1.787
								s0.145,2.39-1.757,1.905c-1.443-0.372-1.051-2.009-1.051-2.009s-1.985,0.866-2.226-0.755
								C214.758,68.227,215.595,67.456,216.167,67.181z"/>
							<path fill="#FFFFFF" d="M213.19,67.36c0,0-2.029,3.115,0.871,3.517C214.061,70.876,212.357,70.266,213.19,67.36z"/>
							<path fill="#FFFFFF" d="M220.777,72.792c0,0-2.233,2.968-3.599,0.385C217.178,73.177,218.332,74.568,220.777,72.792z"/>
							<path fill="#FFFFFF" d="M224.339,66.114c0,0,3.58,1.004,1.666,3.216C226.005,69.33,226.883,67.747,224.339,66.114z"/>
							<path fill="#FFFFFF" d="M220.837,60.679c0,0,4.596-0.706,3.559,2.804C224.395,63.483,224.577,61.227,220.837,60.679z"/>
							<path fill="#FFFFFF" d="M215.11,60.263c0,0,2.654-1.658,2.947,0.787C218.057,61.05,217.569,59.606,215.11,60.263z"/>
						</g>
						<g>
							<path fill="#FFF6DE" d="M243.181,84.614c0,0-1.116,7.542-4.921,6.053c-2.623-1.027-0.219-4.683-0.219-4.683
								s-3.125,5.149-6.601,0.705c-3.474-4.446,3.747-5.578,3.747-5.578s-4.804,0.888-3.965-3.106
								c0.835-3.991,6.932-1.187,6.932-1.187s1.385-4.533,4.576-2.313c2.42,1.682,0.561,4.449,0.561,4.449s4.281-0.23,3.606,2.939
								C246.524,83.651,244.44,84.5,243.181,84.614z"/>
							<path fill="#F0CC91" d="M242.007,82.688c0,0-0.611,4.124-2.691,3.309c-1.432-0.561-0.117-2.558-0.117-2.558
								s-1.71,2.815-3.609,0.384c-1.898-2.429,2.049-3.048,2.049-3.048s-2.627,0.486-2.169-1.699c0.458-2.183,3.792-0.65,3.792-0.65
								s0.756-2.477,2.5-1.265c1.322,0.924,0.305,2.433,0.305,2.433s2.342-0.127,1.971,1.608
								C243.833,82.162,242.694,82.627,242.007,82.688z"/>
							<path fill="#FFFFFF" d="M245.091,83.632c0,0,3.236-2.388,0.451-3.891C245.542,79.741,247.037,81.005,245.091,83.632z"/>
							<path fill="#FFFFFF" d="M239.46,75.258c0,0,3.385-2.164,3.791,0.972C243.251,76.23,242.606,74.384,239.46,75.258z"/>
							<path fill="#FFFFFF" d="M233.32,80.679c0,0-3.247-2.372-0.471-3.889C232.849,76.79,231.36,78.063,233.32,80.679z"/>
							<path fill="#FFFFFF" d="M234.817,87.513c0,0-4.928-1.023-2.547-4.188C232.27,83.325,231.233,85.543,234.817,87.513z"/>
							<path fill="#FFFFFF" d="M240.464,90.101c0,0-3.318,0.676-2.691-1.913C237.772,88.188,237.722,89.838,240.464,90.101z"/>
						</g>
						<g>
							<path fill="#FFF6DE" d="M233.088,70.371c0,0,8.499,2.231,6.315,6.401c-1.508,2.877-5.395-0.34-5.395-0.34
								s5.506,4.232-0.023,7.651c-5.53,3.418-5.918-4.997-5.918-4.997s0.41,5.617-4.058,4.152c-4.469-1.461-0.484-8.092-0.484-8.092
								s-5.021-2.157-2.075-5.535c2.232-2.559,5.167-0.079,5.167-0.079s0.277-4.936,3.82-3.763
								C232.406,66.419,233.118,68.915,233.088,70.371z"/>
							<path fill="#F0CC91" d="M230.735,71.475c0,0,4.646,1.22,3.449,3.499c-0.822,1.57-2.944-0.187-2.944-0.187
								s3.009,2.314-0.015,4.183c-3.023,1.87-3.232-2.731-3.232-2.731s0.224,3.071-2.223,2.271
								c-2.441-0.798-0.264-4.426-0.264-4.426s-2.742-1.178-1.134-3.024c1.224-1.397,2.826-0.042,2.826-0.042
								s0.146-2.697,2.09-2.056C230.362,69.317,230.751,70.678,230.735,71.475z"/>
							<path fill="#FFFFFF" d="M232.206,68.06c0,0-2.328-4.008-4.4-1.007C227.805,67.052,229.442,65.5,232.206,68.06z"/>
							<path fill="#FFFFFF" d="M221.902,73.455c0,0-2.052-4.151,1.59-4.221C223.492,69.235,221.297,69.739,221.902,73.455z"/>
							<path fill="#FFFFFF" d="M227.337,81.174c0,0-3.128,3.42-4.517,0.048C222.82,81.222,224.093,83.088,227.337,81.174z"/>
							<path fill="#FFFFFF" d="M235.356,80.322c0,0-1.795,5.515-5.121,2.388C230.235,82.709,232.645,84.177,235.356,80.322z"/>
							<path fill="#FFFFFF" d="M239.032,74.179c0,0,0.357,3.885-2.53,2.839C236.502,77.018,238.384,77.286,239.032,74.179z"/>
						</g>
						<g>
							<path fill="#F0CC91" d="M249.281,86.352c0,0,3.169,5.385-0.024,6.396c-2.203,0.693-2.553-2.877-2.553-2.877
								s0.655,4.896-3.848,3.849c-4.503-1.049-0.479-5.489-0.479-5.489s-2.611,3.039-4.129,0.06
								c-1.522-2.979,3.813-4.326,3.813-4.326s-1.451-3.606,1.729-3.832c2.41-0.172,2.648,2.551,2.648,2.551s2.615-2.35,3.813,0.018
								C250.919,84.015,250.024,85.631,249.281,86.352z"/>
							<path fill="#F0B563" d="M247.54,85.726c0,0,1.732,2.948-0.016,3.497c-1.201,0.379-1.392-1.571-1.392-1.571
								s0.358,2.677-2.104,2.104c-2.463-0.574-0.262-3.001-0.262-3.001s-1.425,1.663-2.26,0.032
								c-0.832-1.628,2.088-2.365,2.088-2.365s-0.795-1.971,0.943-2.096c1.32-0.089,1.446,1.397,1.446,1.397
								s1.427-1.285,2.085,0.011C248.434,84.452,247.946,85.334,247.54,85.726z"/>
							<path fill="#FFFFFF" d="M249.993,84.742c0,0,0.836-3.19-1.713-2.714C248.28,82.029,249.884,82.064,249.993,84.742z"/>
							<path fill="#FFFFFF" d="M242.091,82.298c0,0,1.045-3.123,2.918-1.333C245.009,80.965,243.649,80.12,242.091,82.298z"/>
							<path fill="#FFFFFF" d="M240.961,88.917c0,0-3.292,0.156-2.302-2.241C238.659,86.676,238.366,88.254,240.961,88.917z"/>
							<path fill="#FFFFFF" d="M245.435,92.508c0,0-3.673,1.881-3.78-1.363C241.655,91.145,242.134,93.094,245.435,92.508z"/>
							<path fill="#FFFFFF" d="M250.369,91.252c0,0-1.767,2.14-2.7,0.165C247.669,91.417,248.484,92.495,250.369,91.252z"/>
						</g>
						<g>
							<path fill="#FFF6DE" d="M240.66,88.064c0,0,7.753,2.836,5.341,6.543c-1.664,2.558-5.016-0.793-5.016-0.793
								s4.777,4.442-0.695,7.152c-5.477,2.711-5.096-5.196-5.096-5.196s-0.111,5.291-4.163,3.527
								c-4.05-1.762,0.262-7.609,0.262-7.609s-4.503-2.464-1.452-5.363c2.316-2.197,4.842,0.382,4.842,0.382
								s0.695-4.592,3.906-3.181C240.37,84.308,240.816,86.706,240.66,88.064z"/>
							<path fill="#F0CC91" d="M238.36,88.886c0,0,4.24,1.553,2.92,3.578c-0.91,1.399-2.738-0.434-2.738-0.434
								s2.609,2.429-0.383,3.909c-2.992,1.485-2.785-2.84-2.785-2.84s-0.059,2.891-2.275,1.93c-2.214-0.964,0.143-4.163,0.143-4.163
								s-2.463-1.343-0.795-2.93c1.269-1.197,2.648,0.21,2.648,0.21s0.375-2.51,2.135-1.737
								C238.204,86.837,238.445,88.146,238.36,88.886z"/>
							<path fill="#FFFFFF" d="M240.04,85.822c0,0-1.826-3.953-4.031-1.328C236.009,84.494,237.679,83.184,240.04,85.822z"/>
							<path fill="#FFFFFF" d="M229.922,89.963c0,0-1.55-4.066,1.862-3.81C231.784,86.153,229.684,86.433,229.922,89.963z"/>
							<path fill="#FFFFFF" d="M234.327,97.659c0,0-3.226,2.923-4.227-0.352C230.1,97.307,231.122,99.164,234.327,97.659z"/>
							<path fill="#FFFFFF" d="M241.902,97.57c0,0-2.165,4.998-5.001,1.783C236.901,99.353,239.028,100.938,241.902,97.57z"/>
							<path fill="#FFFFFF" d="M245.884,92.148c0,0-0.009,3.667-2.618,2.435C243.265,94.583,245.003,94.997,245.884,92.148z"/>
						</g>
						<g>
							<path fill="#FFF6DE" d="M266.713,89.301c0,0,7.788,7.252,3.066,10.446c-3.258,2.206-5.559-3.451-5.559-3.451
								s3.451,7.668-4.407,8.147c-7.859,0.479-3.451-8.72-3.451-8.72s-2.779,6.228-6.709,2.107c-3.93-4.122,4.121-8.913,4.121-8.913
								s-4.121-5.175,0.957-7.091c3.85-1.454,5.56,2.875,5.56,2.875s3.121-5.106,6.23-1.822
								C268.247,84.701,267.575,87.768,266.713,89.301z"/>
							<path fill="#F0CC91" d="M263.569,89.13c0,0,4.256,3.966,1.676,5.71c-1.781,1.206-3.039-1.886-3.039-1.886
								s1.888,4.192-2.408,4.453c-4.297,0.261-1.887-4.767-1.887-4.767s-1.518,3.406-3.666,1.153
								c-2.148-2.254,2.252-4.872,2.252-4.872s-2.252-2.83,0.522-3.878c2.104-0.793,3.04,1.573,3.04,1.573s1.705-2.791,3.404-0.994
								C264.407,86.617,264.04,88.293,263.569,89.13z"/>
							<path fill="#FFFFFF" d="M267.097,86.331c0,0-0.191-5.608-4.121-3.594C262.975,82.737,265.61,82.018,267.097,86.331z"/>
							<path fill="#FFFFFF" d="M253.009,86.187c0,0,0.191-5.607,4.119-3.594C257.128,82.593,254.493,81.875,253.009,86.187z"/>
							<path fill="#FFFFFF" d="M254.388,97.532c0,0-5.296,1.857-4.846-2.535C249.543,94.997,249.829,97.713,254.388,97.532z"/>
							<path fill="#FFFFFF" d="M263.43,101.218c0,0-5.072,4.853-6.831-0.384C256.598,100.833,258.331,103.78,263.43,101.218z"/>
							<path fill="#FFFFFF" d="M270.872,96.769c0,0-1.846,4.35-4.328,1.58C266.544,98.349,268.399,99.712,270.872,96.769z"/>
						</g>
						<g>
							<path fill="#FFF6DE" d="M245.843,87.447c0,0,0.838-7.496,4.65-6.158c2.631,0.922,0.383,4.623,0.383,4.623
								s2.908-5.205,6.502-0.934c3.592,4.271-3.508,5.648-3.508,5.648s4.721-1.051,4.033,2.929c-0.685,3.976-6.813,1.42-6.813,1.42
								s-1.205,4.532-4.442,2.451c-2.452-1.578-0.71-4.378-0.71-4.378s-4.226,0.38-3.67-2.778
								C242.575,88.519,244.605,87.603,245.843,87.447z"/>
							<path fill="#F0CC91" d="M247.074,89.308c0,0,0.458-4.096,2.54-3.365c1.44,0.504,0.211,2.526,0.211,2.526
								s1.591-2.845,3.555-0.51c1.963,2.334-1.918,3.087-1.918,3.087s2.58-0.574,2.204,1.601c-0.372,2.173-3.722,0.776-3.722,0.776
								s-0.66,2.476-2.43,1.339c-1.34-0.863-0.389-2.394-0.389-2.394s-2.309,0.207-2.006-1.52
								C245.288,89.894,246.398,89.394,247.074,89.308z"/>
							<path fill="#FFFFFF" d="M243.989,88.484c0,0-3.11,2.479-0.305,3.866C243.684,92.35,242.163,91.154,243.989,88.484z"/>
							<path fill="#FFFFFF" d="M249.86,96.564c0,0-3.271,2.26-3.787-0.826C246.073,95.738,246.778,97.539,249.86,96.564z"/>
							<path fill="#FFFFFF" d="M255.735,90.985c0,0,3.293,2.229,0.603,3.83C256.338,94.815,257.764,93.503,255.735,90.985z"/>
							<path fill="#FFFFFF" d="M254.013,84.281c0,0,4.904,0.838,2.666,4.052C256.679,88.333,257.626,86.103,254.013,84.281z"/>
							<path fill="#FFFFFF" d="M248.337,81.925c0,0,3.256-0.788,2.729,1.795C251.065,83.72,251.055,82.09,248.337,81.925z"/>
						</g>
						<g>
							<path fill="#FFF6DE" d="M254.648,84.621c0,0-7.81-1.923-5.867-5.771c1.341-2.654,4.94,0.235,4.94,0.235
								s-5.099-3.795-0.085-7.003c5.016-3.207,5.487,4.493,5.487,4.493s-0.455-5.137,3.656-3.859
								c4.109,1.275,0.555,7.399,0.555,7.399s4.626,1.906,1.979,5.038c-2.012,2.375-4.73,0.144-4.73,0.144s-0.184,4.522-3.445,3.496
								C255.328,88.228,254.642,85.953,254.648,84.621z"/>
							<path fill="#F0CC91" d="M256.788,83.579c0,0-4.271-1.052-3.207-3.154c0.732-1.452,2.699,0.128,2.699,0.128
								s-2.787-2.073-0.045-3.827c2.74-1.753,2.998,2.455,2.998,2.455s-0.249-2.807,2-2.108c2.246,0.697,0.305,4.045,0.305,4.045
								s2.525,1.042,1.078,2.753c-1.098,1.297-2.586,0.08-2.586,0.08s-0.1,2.471-1.884,1.909
								C257.159,85.55,256.784,84.306,256.788,83.579z"/>
							<path fill="#FFFFFF" d="M255.487,86.727c0,0,2.189,3.635,4.045,0.857C259.532,87.585,258.055,89.03,255.487,86.727z"/>
							<path fill="#FFFFFF" d="M264.847,81.642c0,0,1.934,3.771-1.398,3.887C263.448,85.53,265.451,85.036,264.847,81.642z"/>
							<path fill="#FFFFFF" d="M259.764,74.656c0,0,2.813-3.175,4.131-0.11C263.895,74.547,262.706,72.859,259.764,74.656z"/>
							<path fill="#FFFFFF" d="M252.435,75.546c0,0,1.565-5.071,4.653-2.259C257.089,73.286,254.86,71.977,252.435,75.546z"/>
							<path fill="#FFFFFF" d="M249.155,81.22c0,0-0.381-3.553,2.277-2.636C251.432,78.585,249.707,78.368,249.155,81.22z"/>
						</g>
					</g>
				</g>
			</g>
		</g>
		<g>
			<path fill="#FFF6DE" d="M202.515,182.191c0,0-7.81-1.923-5.867-5.771c1.341-2.654,4.94,0.235,4.94,0.235
				s-5.099-3.795-0.085-7.003c5.016-3.207,5.487,4.493,5.487,4.493s-0.455-5.137,3.656-3.859c4.109,1.275,0.555,7.399,0.555,7.399
				s4.626,1.906,1.979,5.038c-2.012,2.375-4.73,0.144-4.73,0.144s-0.184,4.522-3.445,3.496
				C203.194,185.797,202.509,183.523,202.515,182.191z"/>
			<path fill="#F0CC91" d="M204.654,181.149c0,0-4.271-1.052-3.207-3.154c0.733-1.452,2.699,0.128,2.699,0.128
				s-2.787-2.073-0.045-3.827c2.74-1.753,2.998,2.455,2.998,2.455s-0.249-2.807,2-2.108c2.246,0.697,0.305,4.045,0.305,4.045
				s2.525,1.042,1.078,2.753c-1.098,1.297-2.586,0.08-2.586,0.08s-0.1,2.471-1.884,1.909
				C205.025,183.119,204.65,181.876,204.654,181.149z"/>
			<path fill="#FFFFFF" d="M203.353,184.297c0,0,2.189,3.635,4.045,0.857C207.398,185.154,205.922,186.599,203.353,184.297z"/>
			<path fill="#FFFFFF" d="M212.713,179.212c0,0,1.934,3.771-1.398,3.887C211.314,183.099,213.317,182.606,212.713,179.212z"/>
			<path fill="#FFFFFF" d="M207.631,172.226c0,0,2.813-3.175,4.131-0.11C211.762,172.116,210.572,170.428,207.631,172.226z"/>
			<path fill="#FFFFFF" d="M200.302,173.115c0,0,1.566-5.071,4.653-2.259C204.955,170.856,202.726,169.546,200.302,173.115z"/>
			<path fill="#FFFFFF" d="M197.021,178.79c0,0-0.381-3.553,2.277-2.636C199.299,176.154,197.573,175.937,197.021,178.79z"/>
		</g>
		<g>
			<path fill="#FFF6DE" d="M186.403,166.768c0,0,0.838-7.496,4.65-6.158c2.631,0.922,0.383,4.622,0.383,4.622
				s2.908-5.205,6.502-0.934c3.592,4.271-3.508,5.648-3.508,5.648s4.721-1.051,4.033,2.929c-0.685,3.976-6.813,1.42-6.813,1.42
				s-1.205,4.532-4.442,2.451c-2.452-1.578-0.71-4.378-0.71-4.378s-4.226,0.38-3.67-2.778
				C183.135,167.84,185.165,166.924,186.403,166.768z"/>
			<path fill="#F0CC91" d="M187.634,168.629c0,0,0.458-4.096,2.54-3.365c1.44,0.504,0.211,2.526,0.211,2.526s1.591-2.845,3.555-0.51
				c1.963,2.334-1.918,3.087-1.918,3.087s2.58-0.574,2.204,1.601c-0.372,2.173-3.722,0.776-3.722,0.776s-0.66,2.476-2.43,1.339
				c-1.34-0.863-0.389-2.394-0.389-2.394s-2.309,0.207-2.006-1.52C185.848,169.215,186.958,168.715,187.634,168.629z"/>
			<path fill="#FFFFFF" d="M184.549,167.805c0,0-3.11,2.479-0.305,3.866C184.244,171.671,182.723,170.474,184.549,167.805z"/>
			<path fill="#FFFFFF" d="M190.42,175.885c0,0-3.271,2.26-3.787-0.826C186.633,175.058,187.338,176.86,190.42,175.885z"/>
			<path fill="#FFFFFF" d="M196.295,170.306c0,0,3.293,2.229,0.603,3.83C196.898,174.135,198.325,172.824,196.295,170.306z"/>
			<path fill="#FFFFFF" d="M194.573,163.602c0,0,4.904,0.838,2.666,4.052C197.239,167.654,198.186,165.424,194.573,163.602z"/>
			<path fill="#FFFFFF" d="M188.897,161.245c0,0,3.256-0.788,2.729,1.795C191.625,163.041,191.615,161.41,188.897,161.245z"/>
		</g>
		<g>
			<path fill="#FFF6DE" d="M164.56,170.605c0,0,7.788,7.252,3.066,10.446c-3.258,2.206-5.559-3.451-5.559-3.451
				s3.451,7.668-4.407,8.147c-7.859,0.479-3.451-8.72-3.451-8.72s-2.779,6.228-6.709,2.107c-3.93-4.122,4.121-8.913,4.121-8.913
				s-4.121-5.175,0.957-7.091c3.85-1.454,5.56,2.875,5.56,2.875s3.121-5.107,6.23-1.822
				C166.094,166.005,165.423,169.071,164.56,170.605z"/>
			<path fill="#F0CC91" d="M161.417,170.434c0,0,4.256,3.966,1.676,5.71c-1.781,1.206-3.039-1.886-3.039-1.886
				s1.888,4.192-2.408,4.453c-4.297,0.261-1.887-4.767-1.887-4.767s-1.518,3.406-3.666,1.153c-2.148-2.254,2.252-4.872,2.252-4.872
				s-2.252-2.83,0.523-3.878c2.104-0.793,3.04,1.573,3.04,1.573s1.705-2.791,3.404-0.994
				C162.255,167.921,161.887,169.596,161.417,170.434z"/>
			<path fill="#FFFFFF" d="M164.944,167.634c0,0-0.191-5.608-4.121-3.594C160.823,164.04,163.458,163.321,164.944,167.634z"/>
			<path fill="#FFFFFF" d="M150.856,167.491c0,0,0.191-5.607,4.119-3.594C154.975,163.897,152.341,163.179,150.856,167.491z"/>
			<path fill="#FFFFFF" d="M152.236,178.836c0,0-5.296,1.857-4.846-2.535C147.39,176.301,147.677,179.016,152.236,178.836z"/>
			<path fill="#FFFFFF" d="M161.277,182.521c0,0-5.072,4.853-6.831-0.384C154.446,182.137,156.178,185.083,161.277,182.521z"/>
			<path fill="#FFFFFF" d="M168.719,178.073c0,0-1.846,4.35-4.328,1.58C164.391,179.653,166.247,181.015,168.719,178.073z"/>
		</g>
		<g>
			<path fill="#FFF6DE" d="M181.852,173.212c0,0,0.838-7.496,4.65-6.158c2.631,0.922,0.383,4.623,0.383,4.623
				s2.908-5.205,6.502-0.934c3.592,4.271-3.508,5.648-3.508,5.648s4.721-1.051,4.033,2.929c-0.685,3.976-6.813,1.42-6.813,1.42
				s-1.205,4.532-4.442,2.451c-2.452-1.578-0.71-4.378-0.71-4.378s-4.226,0.38-3.67-2.778
				C178.585,174.284,180.615,173.368,181.852,173.212z"/>
			<path fill="#F0CC91" d="M183.084,175.073c0,0,0.458-4.096,2.54-3.365c1.44,0.504,0.211,2.526,0.211,2.526s1.591-2.845,3.555-0.51
				c1.963,2.334-1.918,3.087-1.918,3.087s2.58-0.574,2.204,1.602c-0.372,2.173-3.722,0.776-3.722,0.776s-0.66,2.476-2.43,1.339
				c-1.34-0.863-0.389-2.394-0.389-2.394s-2.309,0.208-2.006-1.52C181.298,175.659,182.408,175.159,183.084,175.073z"/>
			<path fill="#FFFFFF" d="M179.999,174.249c0,0-3.11,2.479-0.305,3.866C179.694,178.115,178.173,176.919,179.999,174.249z"/>
			<path fill="#FFFFFF" d="M185.87,182.329c0,0-3.271,2.26-3.787-0.826C182.083,181.503,182.788,183.304,185.87,182.329z"/>
			<path fill="#FFFFFF" d="M190.022,170.046c0,0,4.904,0.838,2.666,4.052C192.688,174.098,193.635,171.868,190.022,170.046z"/>
			<path fill="#FFFFFF" d="M184.346,167.69c0,0,3.256-0.788,2.729,1.795C187.075,169.485,187.064,167.855,184.346,167.69z"/>
		</g>
		<g>
			<path fill="#FFF6DE" d="M175.896,184.892c0,0-7.81-1.923-5.867-5.771c1.341-2.654,4.94,0.235,4.94,0.235
				s-5.099-3.795-0.085-7.003c5.016-3.207,5.487,4.493,5.487,4.493s-0.455-5.137,3.656-3.859c4.109,1.275,0.555,7.399,0.555,7.399
				s4.626,1.906,1.979,5.038c-2.012,2.375-4.73,0.144-4.73,0.144s-0.184,4.522-3.445,3.496
				C176.576,188.499,175.891,186.224,175.896,184.892z"/>
			<path fill="#F0CC91" d="M178.036,183.85c0,0-4.271-1.052-3.207-3.154c0.733-1.452,2.699,0.128,2.699,0.128
				s-2.787-2.073-0.045-3.827c2.74-1.753,2.998,2.455,2.998,2.455s-0.249-2.807,2-2.108c2.246,0.697,0.305,4.045,0.305,4.045
				s2.525,1.042,1.078,2.753c-1.098,1.297-2.586,0.08-2.586,0.08s-0.1,2.471-1.884,1.909
				C178.407,185.82,178.032,184.577,178.036,183.85z"/>
			<path fill="#FFFFFF" d="M176.735,186.998c0,0,2.189,3.635,4.045,0.857C180.78,187.855,179.304,189.3,176.735,186.998z"/>
			<path fill="#FFFFFF" d="M186.095,181.913c0,0,1.934,3.771-1.398,3.887C184.696,185.8,186.699,185.307,186.095,181.913z"/>
			<path fill="#FFFFFF" d="M181.013,174.927c0,0,2.813-3.175,4.131-0.11C185.143,174.817,183.954,173.129,181.013,174.927z"/>
			<path fill="#FFFFFF" d="M173.683,175.816c0,0,1.566-5.071,4.653-2.259C178.337,173.557,176.108,172.248,173.683,175.816z"/>
			<path fill="#FFFFFF" d="M170.403,181.491c0,0-0.381-3.553,2.277-2.636C172.681,178.855,170.955,178.639,170.403,181.491z"/>
		</g>
		<g>
			<path fill="#FFF6DE" d="M177.604,164.611c0,0,8.499,2.231,6.315,6.401c-1.508,2.877-5.394-0.34-5.394-0.34
				s5.506,4.232-0.024,7.651c-5.53,3.418-5.918-4.997-5.918-4.997s0.41,5.617-4.058,4.152c-4.469-1.461-0.484-8.092-0.484-8.092
				s-5.021-2.157-2.075-5.535c2.232-2.559,5.167-0.079,5.167-0.079s0.277-4.936,3.82-3.763
				C176.922,160.659,177.634,163.155,177.604,164.611z"/>
			<path fill="#F0CC91" d="M175.251,165.715c0,0,4.646,1.22,3.449,3.499c-0.822,1.57-2.944-0.186-2.944-0.186
				s3.009,2.314-0.015,4.183c-3.024,1.87-3.233-2.731-3.233-2.731s0.224,3.071-2.223,2.27c-2.441-0.798-0.264-4.426-0.264-4.426
				s-2.742-1.178-1.134-3.024c1.224-1.397,2.826-0.042,2.826-0.042s0.146-2.697,2.09-2.056
				C174.878,163.557,175.267,164.919,175.251,165.715z"/>
			<path fill="#FFFFFF" d="M176.722,162.3c0,0-2.328-4.008-4.4-1.007C172.321,161.293,173.958,159.74,176.722,162.3z"/>
			<path fill="#FFFFFF" d="M166.418,167.696c0,0-2.052-4.151,1.59-4.221C168.008,163.475,165.813,163.979,166.418,167.696z"/>
			<path fill="#FFFFFF" d="M171.853,175.414c0,0-3.128,3.42-4.517,0.048C167.336,175.462,168.608,177.328,171.853,175.414z"/>
			<path fill="#FFFFFF" d="M179.872,174.562c0,0-1.795,5.515-5.121,2.388C174.751,176.949,177.161,178.418,179.872,174.562z"/>
			<path fill="#FFFFFF" d="M183.548,168.419c0,0,0.357,3.885-2.53,2.839C181.018,171.258,182.9,171.526,183.548,168.419z"/>
		</g>
	</g>
</g>
</svg>
